<?xml version="1.0" encoding="UTF-8" standalone="no"?>
<svg>
<metadata>built for 'CBISF' braille table on Sun Dec 07 11:53:09 CET 2014</metadata>
<defs>
<font horiz-adv-x="600" id="Braille-CBISF" vert-adv-y="">
<font-face ascent="598" descent="-229" font-family="Braille" font-stretch="normal" font-weight="normal" units-per-em="1024"/>
<missing-glyph/>
<glyph d="M 70 528 m -17, 0 a 17,17 0 1,1 34,0 a 17,17 0 1,1 -34,0 z M 70 299 m -17, 0 a 17,17 0 1,1 34,0 a 17,17 0 1,1 -34,0 z M 70 70 m -17, 0 a 17,17 0 1,1 34,0 a 17,17 0 1,1 -34,0 z M 299 528 m -17, 0 a 17,17 0 1,1 34,0 a 17,17 0 1,1 -34,0 z M 299 299 m -17, 0 a 17,17 0 1,1 34,0 a 17,17 0 1,1 -34,0 z M 299 70 m -17, 0 a 17,17 0 1,1 34,0 a 17,17 0 1,1 -34,0 z " horiz-adv-x="600" unicode=" "/>
<glyph d="M 70 528 m -70, 0 a 70,70 0 1,1 140,0 a 70,70 0 1,1 -140,0 z M 70 299 m -17, 0 a 17,17 0 1,1 34,0 a 17,17 0 1,1 -34,0 z M 70 70 m -17, 0 a 17,17 0 1,1 34,0 a 17,17 0 1,1 -34,0 z M 299 528 m -17, 0 a 17,17 0 1,1 34,0 a 17,17 0 1,1 -34,0 z M 299 299 m -17, 0 a 17,17 0 1,1 34,0 a 17,17 0 1,1 -34,0 z M 299 70 m -17, 0 a 17,17 0 1,1 34,0 a 17,17 0 1,1 -34,0 z " horiz-adv-x="600" unicode="a"/>
<glyph d="M 70 528 m -17, 0 a 17,17 0 1,1 34,0 a 17,17 0 1,1 -34,0 z M 70 299 m -70, 0 a 70,70 0 1,1 140,0 a 70,70 0 1,1 -140,0 z M 70 70 m -17, 0 a 17,17 0 1,1 34,0 a 17,17 0 1,1 -34,0 z M 299 528 m -17, 0 a 17,17 0 1,1 34,0 a 17,17 0 1,1 -34,0 z M 299 299 m -17, 0 a 17,17 0 1,1 34,0 a 17,17 0 1,1 -34,0 z M 299 70 m -17, 0 a 17,17 0 1,1 34,0 a 17,17 0 1,1 -34,0 z " horiz-adv-x="600" unicode=","/>
<glyph d="M 70 528 m -70, 0 a 70,70 0 1,1 140,0 a 70,70 0 1,1 -140,0 z M 70 299 m -70, 0 a 70,70 0 1,1 140,0 a 70,70 0 1,1 -140,0 z M 70 70 m -17, 0 a 17,17 0 1,1 34,0 a 17,17 0 1,1 -34,0 z M 299 528 m -17, 0 a 17,17 0 1,1 34,0 a 17,17 0 1,1 -34,0 z M 299 299 m -17, 0 a 17,17 0 1,1 34,0 a 17,17 0 1,1 -34,0 z M 299 70 m -17, 0 a 17,17 0 1,1 34,0 a 17,17 0 1,1 -34,0 z " horiz-adv-x="600" unicode="b"/>
<glyph d="M 70 528 m -17, 0 a 17,17 0 1,1 34,0 a 17,17 0 1,1 -34,0 z M 70 299 m -17, 0 a 17,17 0 1,1 34,0 a 17,17 0 1,1 -34,0 z M 70 70 m -70, 0 a 70,70 0 1,1 140,0 a 70,70 0 1,1 -140,0 z M 299 528 m -17, 0 a 17,17 0 1,1 34,0 a 17,17 0 1,1 -34,0 z M 299 299 m -17, 0 a 17,17 0 1,1 34,0 a 17,17 0 1,1 -34,0 z M 299 70 m -17, 0 a 17,17 0 1,1 34,0 a 17,17 0 1,1 -34,0 z " horiz-adv-x="600" unicode="."/>
<glyph d="M 70 528 m -70, 0 a 70,70 0 1,1 140,0 a 70,70 0 1,1 -140,0 z M 70 299 m -17, 0 a 17,17 0 1,1 34,0 a 17,17 0 1,1 -34,0 z M 70 70 m -70, 0 a 70,70 0 1,1 140,0 a 70,70 0 1,1 -140,0 z M 299 528 m -17, 0 a 17,17 0 1,1 34,0 a 17,17 0 1,1 -34,0 z M 299 299 m -17, 0 a 17,17 0 1,1 34,0 a 17,17 0 1,1 -34,0 z M 299 70 m -17, 0 a 17,17 0 1,1 34,0 a 17,17 0 1,1 -34,0 z " horiz-adv-x="600" unicode="k"/>
<glyph d="M 70 528 m -17, 0 a 17,17 0 1,1 34,0 a 17,17 0 1,1 -34,0 z M 70 299 m -70, 0 a 70,70 0 1,1 140,0 a 70,70 0 1,1 -140,0 z M 70 70 m -70, 0 a 70,70 0 1,1 140,0 a 70,70 0 1,1 -140,0 z M 299 528 m -17, 0 a 17,17 0 1,1 34,0 a 17,17 0 1,1 -34,0 z M 299 299 m -17, 0 a 17,17 0 1,1 34,0 a 17,17 0 1,1 -34,0 z M 299 70 m -17, 0 a 17,17 0 1,1 34,0 a 17,17 0 1,1 -34,0 z " horiz-adv-x="600" unicode=";"/>
<glyph d="M 70 528 m -70, 0 a 70,70 0 1,1 140,0 a 70,70 0 1,1 -140,0 z M 70 299 m -70, 0 a 70,70 0 1,1 140,0 a 70,70 0 1,1 -140,0 z M 70 70 m -70, 0 a 70,70 0 1,1 140,0 a 70,70 0 1,1 -140,0 z M 299 528 m -17, 0 a 17,17 0 1,1 34,0 a 17,17 0 1,1 -34,0 z M 299 299 m -17, 0 a 17,17 0 1,1 34,0 a 17,17 0 1,1 -34,0 z M 299 70 m -17, 0 a 17,17 0 1,1 34,0 a 17,17 0 1,1 -34,0 z " horiz-adv-x="600" unicode="l"/>
<glyph d="M 70 528 m -17, 0 a 17,17 0 1,1 34,0 a 17,17 0 1,1 -34,0 z M 70 299 m -17, 0 a 17,17 0 1,1 34,0 a 17,17 0 1,1 -34,0 z M 70 70 m -17, 0 a 17,17 0 1,1 34,0 a 17,17 0 1,1 -34,0 z M 299 528 m -70, 0 a 70,70 0 1,1 140,0 a 70,70 0 1,1 -140,0 z M 299 299 m -17, 0 a 17,17 0 1,1 34,0 a 17,17 0 1,1 -34,0 z M 299 70 m -17, 0 a 17,17 0 1,1 34,0 a 17,17 0 1,1 -34,0 z " horiz-adv-x="600" unicode="ù"/>
<glyph d="M 70 528 m -70, 0 a 70,70 0 1,1 140,0 a 70,70 0 1,1 -140,0 z M 70 299 m -17, 0 a 17,17 0 1,1 34,0 a 17,17 0 1,1 -34,0 z M 70 70 m -17, 0 a 17,17 0 1,1 34,0 a 17,17 0 1,1 -34,0 z M 299 528 m -70, 0 a 70,70 0 1,1 140,0 a 70,70 0 1,1 -140,0 z M 299 299 m -17, 0 a 17,17 0 1,1 34,0 a 17,17 0 1,1 -34,0 z M 299 70 m -17, 0 a 17,17 0 1,1 34,0 a 17,17 0 1,1 -34,0 z " horiz-adv-x="600" unicode="c"/>
<glyph d="M 70 528 m -17, 0 a 17,17 0 1,1 34,0 a 17,17 0 1,1 -34,0 z M 70 299 m -70, 0 a 70,70 0 1,1 140,0 a 70,70 0 1,1 -140,0 z M 70 70 m -17, 0 a 17,17 0 1,1 34,0 a 17,17 0 1,1 -34,0 z M 299 528 m -70, 0 a 70,70 0 1,1 140,0 a 70,70 0 1,1 -140,0 z M 299 299 m -17, 0 a 17,17 0 1,1 34,0 a 17,17 0 1,1 -34,0 z M 299 70 m -17, 0 a 17,17 0 1,1 34,0 a 17,17 0 1,1 -34,0 z " horiz-adv-x="600" unicode="i"/>
<glyph d="M 70 528 m -70, 0 a 70,70 0 1,1 140,0 a 70,70 0 1,1 -140,0 z M 70 299 m -70, 0 a 70,70 0 1,1 140,0 a 70,70 0 1,1 -140,0 z M 70 70 m -17, 0 a 17,17 0 1,1 34,0 a 17,17 0 1,1 -34,0 z M 299 528 m -70, 0 a 70,70 0 1,1 140,0 a 70,70 0 1,1 -140,0 z M 299 299 m -17, 0 a 17,17 0 1,1 34,0 a 17,17 0 1,1 -34,0 z M 299 70 m -17, 0 a 17,17 0 1,1 34,0 a 17,17 0 1,1 -34,0 z " horiz-adv-x="600" unicode="f"/>
<glyph d="M 70 528 m -17, 0 a 17,17 0 1,1 34,0 a 17,17 0 1,1 -34,0 z M 70 299 m -17, 0 a 17,17 0 1,1 34,0 a 17,17 0 1,1 -34,0 z M 70 70 m -70, 0 a 70,70 0 1,1 140,0 a 70,70 0 1,1 -140,0 z M 299 528 m -70, 0 a 70,70 0 1,1 140,0 a 70,70 0 1,1 -140,0 z M 299 299 m -17, 0 a 17,17 0 1,1 34,0 a 17,17 0 1,1 -34,0 z M 299 70 m -17, 0 a 17,17 0 1,1 34,0 a 17,17 0 1,1 -34,0 z " horiz-adv-x="600" unicode="^"/>
<glyph d="M 70 528 m -70, 0 a 70,70 0 1,1 140,0 a 70,70 0 1,1 -140,0 z M 70 299 m -17, 0 a 17,17 0 1,1 34,0 a 17,17 0 1,1 -34,0 z M 70 70 m -70, 0 a 70,70 0 1,1 140,0 a 70,70 0 1,1 -140,0 z M 299 528 m -70, 0 a 70,70 0 1,1 140,0 a 70,70 0 1,1 -140,0 z M 299 299 m -17, 0 a 17,17 0 1,1 34,0 a 17,17 0 1,1 -34,0 z M 299 70 m -17, 0 a 17,17 0 1,1 34,0 a 17,17 0 1,1 -34,0 z " horiz-adv-x="600" unicode="m"/>
<glyph d="M 70 528 m -17, 0 a 17,17 0 1,1 34,0 a 17,17 0 1,1 -34,0 z M 70 299 m -70, 0 a 70,70 0 1,1 140,0 a 70,70 0 1,1 -140,0 z M 70 70 m -70, 0 a 70,70 0 1,1 140,0 a 70,70 0 1,1 -140,0 z M 299 528 m -70, 0 a 70,70 0 1,1 140,0 a 70,70 0 1,1 -140,0 z M 299 299 m -17, 0 a 17,17 0 1,1 34,0 a 17,17 0 1,1 -34,0 z M 299 70 m -17, 0 a 17,17 0 1,1 34,0 a 17,17 0 1,1 -34,0 z " horiz-adv-x="600" unicode="s"/>
<glyph d="M 70 528 m -70, 0 a 70,70 0 1,1 140,0 a 70,70 0 1,1 -140,0 z M 70 299 m -70, 0 a 70,70 0 1,1 140,0 a 70,70 0 1,1 -140,0 z M 70 70 m -70, 0 a 70,70 0 1,1 140,0 a 70,70 0 1,1 -140,0 z M 299 528 m -70, 0 a 70,70 0 1,1 140,0 a 70,70 0 1,1 -140,0 z M 299 299 m -17, 0 a 17,17 0 1,1 34,0 a 17,17 0 1,1 -34,0 z M 299 70 m -17, 0 a 17,17 0 1,1 34,0 a 17,17 0 1,1 -34,0 z " horiz-adv-x="600" unicode="p"/>
<glyph d="M 70 528 m -17, 0 a 17,17 0 1,1 34,0 a 17,17 0 1,1 -34,0 z M 70 299 m -17, 0 a 17,17 0 1,1 34,0 a 17,17 0 1,1 -34,0 z M 70 70 m -17, 0 a 17,17 0 1,1 34,0 a 17,17 0 1,1 -34,0 z M 299 528 m -17, 0 a 17,17 0 1,1 34,0 a 17,17 0 1,1 -34,0 z M 299 299 m -70, 0 a 70,70 0 1,1 140,0 a 70,70 0 1,1 -140,0 z M 299 70 m -17, 0 a 17,17 0 1,1 34,0 a 17,17 0 1,1 -34,0 z " horiz-adv-x="600" unicode="ú"/>
<glyph d="M 70 528 m -70, 0 a 70,70 0 1,1 140,0 a 70,70 0 1,1 -140,0 z M 70 299 m -17, 0 a 17,17 0 1,1 34,0 a 17,17 0 1,1 -34,0 z M 70 70 m -17, 0 a 17,17 0 1,1 34,0 a 17,17 0 1,1 -34,0 z M 299 528 m -17, 0 a 17,17 0 1,1 34,0 a 17,17 0 1,1 -34,0 z M 299 299 m -70, 0 a 70,70 0 1,1 140,0 a 70,70 0 1,1 -140,0 z M 299 70 m -17, 0 a 17,17 0 1,1 34,0 a 17,17 0 1,1 -34,0 z " horiz-adv-x="600" unicode="e"/>
<glyph d="M 70 528 m -17, 0 a 17,17 0 1,1 34,0 a 17,17 0 1,1 -34,0 z M 70 299 m -70, 0 a 70,70 0 1,1 140,0 a 70,70 0 1,1 -140,0 z M 70 70 m -17, 0 a 17,17 0 1,1 34,0 a 17,17 0 1,1 -34,0 z M 299 528 m -17, 0 a 17,17 0 1,1 34,0 a 17,17 0 1,1 -34,0 z M 299 299 m -70, 0 a 70,70 0 1,1 140,0 a 70,70 0 1,1 -140,0 z M 299 70 m -17, 0 a 17,17 0 1,1 34,0 a 17,17 0 1,1 -34,0 z " horiz-adv-x="600" unicode=":"/>
<glyph d="M 70 528 m -70, 0 a 70,70 0 1,1 140,0 a 70,70 0 1,1 -140,0 z M 70 299 m -70, 0 a 70,70 0 1,1 140,0 a 70,70 0 1,1 -140,0 z M 70 70 m -17, 0 a 17,17 0 1,1 34,0 a 17,17 0 1,1 -34,0 z M 299 528 m -17, 0 a 17,17 0 1,1 34,0 a 17,17 0 1,1 -34,0 z M 299 299 m -70, 0 a 70,70 0 1,1 140,0 a 70,70 0 1,1 -140,0 z M 299 70 m -17, 0 a 17,17 0 1,1 34,0 a 17,17 0 1,1 -34,0 z " horiz-adv-x="600" unicode="h"/>
<glyph d="M 70 528 m -17, 0 a 17,17 0 1,1 34,0 a 17,17 0 1,1 -34,0 z M 70 299 m -17, 0 a 17,17 0 1,1 34,0 a 17,17 0 1,1 -34,0 z M 70 70 m -70, 0 a 70,70 0 1,1 140,0 a 70,70 0 1,1 -140,0 z M 299 528 m -17, 0 a 17,17 0 1,1 34,0 a 17,17 0 1,1 -34,0 z M 299 299 m -70, 0 a 70,70 0 1,1 140,0 a 70,70 0 1,1 -140,0 z M 299 70 m -17, 0 a 17,17 0 1,1 34,0 a 17,17 0 1,1 -34,0 z " horiz-adv-x="600" unicode="*"/>
<glyph d="M 70 528 m -70, 0 a 70,70 0 1,1 140,0 a 70,70 0 1,1 -140,0 z M 70 299 m -17, 0 a 17,17 0 1,1 34,0 a 17,17 0 1,1 -34,0 z M 70 70 m -70, 0 a 70,70 0 1,1 140,0 a 70,70 0 1,1 -140,0 z M 299 528 m -17, 0 a 17,17 0 1,1 34,0 a 17,17 0 1,1 -34,0 z M 299 299 m -70, 0 a 70,70 0 1,1 140,0 a 70,70 0 1,1 -140,0 z M 299 70 m -17, 0 a 17,17 0 1,1 34,0 a 17,17 0 1,1 -34,0 z " horiz-adv-x="600" unicode="o"/>
<glyph d="M 70 528 m -17, 0 a 17,17 0 1,1 34,0 a 17,17 0 1,1 -34,0 z M 70 299 m -70, 0 a 70,70 0 1,1 140,0 a 70,70 0 1,1 -140,0 z M 70 70 m -70, 0 a 70,70 0 1,1 140,0 a 70,70 0 1,1 -140,0 z M 299 528 m -17, 0 a 17,17 0 1,1 34,0 a 17,17 0 1,1 -34,0 z M 299 299 m -70, 0 a 70,70 0 1,1 140,0 a 70,70 0 1,1 -140,0 z M 299 70 m -17, 0 a 17,17 0 1,1 34,0 a 17,17 0 1,1 -34,0 z " horiz-adv-x="600" unicode="!"/>
<glyph d="M 70 528 m -70, 0 a 70,70 0 1,1 140,0 a 70,70 0 1,1 -140,0 z M 70 299 m -70, 0 a 70,70 0 1,1 140,0 a 70,70 0 1,1 -140,0 z M 70 70 m -70, 0 a 70,70 0 1,1 140,0 a 70,70 0 1,1 -140,0 z M 299 528 m -17, 0 a 17,17 0 1,1 34,0 a 17,17 0 1,1 -34,0 z M 299 299 m -70, 0 a 70,70 0 1,1 140,0 a 70,70 0 1,1 -140,0 z M 299 70 m -17, 0 a 17,17 0 1,1 34,0 a 17,17 0 1,1 -34,0 z " horiz-adv-x="600" unicode="r"/>
<glyph d="M 70 528 m -17, 0 a 17,17 0 1,1 34,0 a 17,17 0 1,1 -34,0 z M 70 299 m -17, 0 a 17,17 0 1,1 34,0 a 17,17 0 1,1 -34,0 z M 70 70 m -17, 0 a 17,17 0 1,1 34,0 a 17,17 0 1,1 -34,0 z M 299 528 m -70, 0 a 70,70 0 1,1 140,0 a 70,70 0 1,1 -140,0 z M 299 299 m -70, 0 a 70,70 0 1,1 140,0 a 70,70 0 1,1 -140,0 z M 299 70 m -17, 0 a 17,17 0 1,1 34,0 a 17,17 0 1,1 -34,0 z " horiz-adv-x="600" unicode="&gt;"/>
<glyph d="M 70 528 m -70, 0 a 70,70 0 1,1 140,0 a 70,70 0 1,1 -140,0 z M 70 299 m -17, 0 a 17,17 0 1,1 34,0 a 17,17 0 1,1 -34,0 z M 70 70 m -17, 0 a 17,17 0 1,1 34,0 a 17,17 0 1,1 -34,0 z M 299 528 m -70, 0 a 70,70 0 1,1 140,0 a 70,70 0 1,1 -140,0 z M 299 299 m -70, 0 a 70,70 0 1,1 140,0 a 70,70 0 1,1 -140,0 z M 299 70 m -17, 0 a 17,17 0 1,1 34,0 a 17,17 0 1,1 -34,0 z " horiz-adv-x="600" unicode="d"/>
<glyph d="M 70 528 m -17, 0 a 17,17 0 1,1 34,0 a 17,17 0 1,1 -34,0 z M 70 299 m -70, 0 a 70,70 0 1,1 140,0 a 70,70 0 1,1 -140,0 z M 70 70 m -17, 0 a 17,17 0 1,1 34,0 a 17,17 0 1,1 -34,0 z M 299 528 m -70, 0 a 70,70 0 1,1 140,0 a 70,70 0 1,1 -140,0 z M 299 299 m -70, 0 a 70,70 0 1,1 140,0 a 70,70 0 1,1 -140,0 z M 299 70 m -17, 0 a 17,17 0 1,1 34,0 a 17,17 0 1,1 -34,0 z " horiz-adv-x="600" unicode="j"/>
<glyph d="M 70 528 m -70, 0 a 70,70 0 1,1 140,0 a 70,70 0 1,1 -140,0 z M 70 299 m -70, 0 a 70,70 0 1,1 140,0 a 70,70 0 1,1 -140,0 z M 70 70 m -17, 0 a 17,17 0 1,1 34,0 a 17,17 0 1,1 -34,0 z M 299 528 m -70, 0 a 70,70 0 1,1 140,0 a 70,70 0 1,1 -140,0 z M 299 299 m -70, 0 a 70,70 0 1,1 140,0 a 70,70 0 1,1 -140,0 z M 299 70 m -17, 0 a 17,17 0 1,1 34,0 a 17,17 0 1,1 -34,0 z " horiz-adv-x="600" unicode="g"/>
<glyph d="M 70 528 m -17, 0 a 17,17 0 1,1 34,0 a 17,17 0 1,1 -34,0 z M 70 299 m -17, 0 a 17,17 0 1,1 34,0 a 17,17 0 1,1 -34,0 z M 70 70 m -70, 0 a 70,70 0 1,1 140,0 a 70,70 0 1,1 -140,0 z M 299 528 m -70, 0 a 70,70 0 1,1 140,0 a 70,70 0 1,1 -140,0 z M 299 299 m -70, 0 a 70,70 0 1,1 140,0 a 70,70 0 1,1 -140,0 z M 299 70 m -17, 0 a 17,17 0 1,1 34,0 a 17,17 0 1,1 -34,0 z " horiz-adv-x="600" unicode="@"/>
<glyph d="M 70 528 m -70, 0 a 70,70 0 1,1 140,0 a 70,70 0 1,1 -140,0 z M 70 299 m -17, 0 a 17,17 0 1,1 34,0 a 17,17 0 1,1 -34,0 z M 70 70 m -70, 0 a 70,70 0 1,1 140,0 a 70,70 0 1,1 -140,0 z M 299 528 m -70, 0 a 70,70 0 1,1 140,0 a 70,70 0 1,1 -140,0 z M 299 299 m -70, 0 a 70,70 0 1,1 140,0 a 70,70 0 1,1 -140,0 z M 299 70 m -17, 0 a 17,17 0 1,1 34,0 a 17,17 0 1,1 -34,0 z " horiz-adv-x="600" unicode="n"/>
<glyph d="M 70 528 m -17, 0 a 17,17 0 1,1 34,0 a 17,17 0 1,1 -34,0 z M 70 299 m -70, 0 a 70,70 0 1,1 140,0 a 70,70 0 1,1 -140,0 z M 70 70 m -70, 0 a 70,70 0 1,1 140,0 a 70,70 0 1,1 -140,0 z M 299 528 m -70, 0 a 70,70 0 1,1 140,0 a 70,70 0 1,1 -140,0 z M 299 299 m -70, 0 a 70,70 0 1,1 140,0 a 70,70 0 1,1 -140,0 z M 299 70 m -17, 0 a 17,17 0 1,1 34,0 a 17,17 0 1,1 -34,0 z " horiz-adv-x="600" unicode="t"/>
<glyph d="M 70 528 m -70, 0 a 70,70 0 1,1 140,0 a 70,70 0 1,1 -140,0 z M 70 299 m -70, 0 a 70,70 0 1,1 140,0 a 70,70 0 1,1 -140,0 z M 70 70 m -70, 0 a 70,70 0 1,1 140,0 a 70,70 0 1,1 -140,0 z M 299 528 m -70, 0 a 70,70 0 1,1 140,0 a 70,70 0 1,1 -140,0 z M 299 299 m -70, 0 a 70,70 0 1,1 140,0 a 70,70 0 1,1 -140,0 z M 299 70 m -17, 0 a 17,17 0 1,1 34,0 a 17,17 0 1,1 -34,0 z " horiz-adv-x="600" unicode="q"/>
<glyph d="M 70 528 m -17, 0 a 17,17 0 1,1 34,0 a 17,17 0 1,1 -34,0 z M 70 299 m -17, 0 a 17,17 0 1,1 34,0 a 17,17 0 1,1 -34,0 z M 70 70 m -17, 0 a 17,17 0 1,1 34,0 a 17,17 0 1,1 -34,0 z M 299 528 m -17, 0 a 17,17 0 1,1 34,0 a 17,17 0 1,1 -34,0 z M 299 299 m -17, 0 a 17,17 0 1,1 34,0 a 17,17 0 1,1 -34,0 z M 299 70 m -70, 0 a 70,70 0 1,1 140,0 a 70,70 0 1,1 -140,0 z " horiz-adv-x="600" unicode="'"/>
<glyph d="M 70 528 m -70, 0 a 70,70 0 1,1 140,0 a 70,70 0 1,1 -140,0 z M 70 299 m -17, 0 a 17,17 0 1,1 34,0 a 17,17 0 1,1 -34,0 z M 70 70 m -17, 0 a 17,17 0 1,1 34,0 a 17,17 0 1,1 -34,0 z M 299 528 m -17, 0 a 17,17 0 1,1 34,0 a 17,17 0 1,1 -34,0 z M 299 299 m -17, 0 a 17,17 0 1,1 34,0 a 17,17 0 1,1 -34,0 z M 299 70 m -70, 0 a 70,70 0 1,1 140,0 a 70,70 0 1,1 -140,0 z " horiz-adv-x="600" unicode="1"/>
<glyph d="M 70 528 m -17, 0 a 17,17 0 1,1 34,0 a 17,17 0 1,1 -34,0 z M 70 299 m -70, 0 a 70,70 0 1,1 140,0 a 70,70 0 1,1 -140,0 z M 70 70 m -17, 0 a 17,17 0 1,1 34,0 a 17,17 0 1,1 -34,0 z M 299 528 m -17, 0 a 17,17 0 1,1 34,0 a 17,17 0 1,1 -34,0 z M 299 299 m -17, 0 a 17,17 0 1,1 34,0 a 17,17 0 1,1 -34,0 z M 299 70 m -70, 0 a 70,70 0 1,1 140,0 a 70,70 0 1,1 -140,0 z " horiz-adv-x="600" unicode="?"/>
<glyph d="M 70 528 m -70, 0 a 70,70 0 1,1 140,0 a 70,70 0 1,1 -140,0 z M 70 299 m -70, 0 a 70,70 0 1,1 140,0 a 70,70 0 1,1 -140,0 z M 70 70 m -17, 0 a 17,17 0 1,1 34,0 a 17,17 0 1,1 -34,0 z M 299 528 m -17, 0 a 17,17 0 1,1 34,0 a 17,17 0 1,1 -34,0 z M 299 299 m -17, 0 a 17,17 0 1,1 34,0 a 17,17 0 1,1 -34,0 z M 299 70 m -70, 0 a 70,70 0 1,1 140,0 a 70,70 0 1,1 -140,0 z " horiz-adv-x="600" unicode="2"/>
<glyph d="M 70 528 m -17, 0 a 17,17 0 1,1 34,0 a 17,17 0 1,1 -34,0 z M 70 299 m -17, 0 a 17,17 0 1,1 34,0 a 17,17 0 1,1 -34,0 z M 70 70 m -70, 0 a 70,70 0 1,1 140,0 a 70,70 0 1,1 -140,0 z M 299 528 m -17, 0 a 17,17 0 1,1 34,0 a 17,17 0 1,1 -34,0 z M 299 299 m -17, 0 a 17,17 0 1,1 34,0 a 17,17 0 1,1 -34,0 z M 299 70 m -70, 0 a 70,70 0 1,1 140,0 a 70,70 0 1,1 -140,0 z " horiz-adv-x="600" unicode="-"/>
<glyph d="M 70 528 m -70, 0 a 70,70 0 1,1 140,0 a 70,70 0 1,1 -140,0 z M 70 299 m -17, 0 a 17,17 0 1,1 34,0 a 17,17 0 1,1 -34,0 z M 70 70 m -70, 0 a 70,70 0 1,1 140,0 a 70,70 0 1,1 -140,0 z M 299 528 m -17, 0 a 17,17 0 1,1 34,0 a 17,17 0 1,1 -34,0 z M 299 299 m -17, 0 a 17,17 0 1,1 34,0 a 17,17 0 1,1 -34,0 z M 299 70 m -70, 0 a 70,70 0 1,1 140,0 a 70,70 0 1,1 -140,0 z " horiz-adv-x="600" unicode="u"/>
<glyph d="M 70 528 m -17, 0 a 17,17 0 1,1 34,0 a 17,17 0 1,1 -34,0 z M 70 299 m -70, 0 a 70,70 0 1,1 140,0 a 70,70 0 1,1 -140,0 z M 70 70 m -70, 0 a 70,70 0 1,1 140,0 a 70,70 0 1,1 -140,0 z M 299 528 m -17, 0 a 17,17 0 1,1 34,0 a 17,17 0 1,1 -34,0 z M 299 299 m -17, 0 a 17,17 0 1,1 34,0 a 17,17 0 1,1 -34,0 z M 299 70 m -70, 0 a 70,70 0 1,1 140,0 a 70,70 0 1,1 -140,0 z " horiz-adv-x="600" unicode="("/>
<glyph d="M 70 528 m -70, 0 a 70,70 0 1,1 140,0 a 70,70 0 1,1 -140,0 z M 70 299 m -70, 0 a 70,70 0 1,1 140,0 a 70,70 0 1,1 -140,0 z M 70 70 m -70, 0 a 70,70 0 1,1 140,0 a 70,70 0 1,1 -140,0 z M 299 528 m -17, 0 a 17,17 0 1,1 34,0 a 17,17 0 1,1 -34,0 z M 299 299 m -17, 0 a 17,17 0 1,1 34,0 a 17,17 0 1,1 -34,0 z M 299 70 m -70, 0 a 70,70 0 1,1 140,0 a 70,70 0 1,1 -140,0 z " horiz-adv-x="600" unicode="v"/>
<glyph d="M 70 528 m -17, 0 a 17,17 0 1,1 34,0 a 17,17 0 1,1 -34,0 z M 70 299 m -17, 0 a 17,17 0 1,1 34,0 a 17,17 0 1,1 -34,0 z M 70 70 m -17, 0 a 17,17 0 1,1 34,0 a 17,17 0 1,1 -34,0 z M 299 528 m -70, 0 a 70,70 0 1,1 140,0 a 70,70 0 1,1 -140,0 z M 299 299 m -17, 0 a 17,17 0 1,1 34,0 a 17,17 0 1,1 -34,0 z M 299 70 m -70, 0 a 70,70 0 1,1 140,0 a 70,70 0 1,1 -140,0 z " horiz-adv-x="600" unicode="°"/>
<glyph d="M 70 528 m -70, 0 a 70,70 0 1,1 140,0 a 70,70 0 1,1 -140,0 z M 70 299 m -17, 0 a 17,17 0 1,1 34,0 a 17,17 0 1,1 -34,0 z M 70 70 m -17, 0 a 17,17 0 1,1 34,0 a 17,17 0 1,1 -34,0 z M 299 528 m -70, 0 a 70,70 0 1,1 140,0 a 70,70 0 1,1 -140,0 z M 299 299 m -17, 0 a 17,17 0 1,1 34,0 a 17,17 0 1,1 -34,0 z M 299 70 m -70, 0 a 70,70 0 1,1 140,0 a 70,70 0 1,1 -140,0 z " horiz-adv-x="600" unicode="3"/>
<glyph d="M 70 528 m -17, 0 a 17,17 0 1,1 34,0 a 17,17 0 1,1 -34,0 z M 70 299 m -70, 0 a 70,70 0 1,1 140,0 a 70,70 0 1,1 -140,0 z M 70 70 m -17, 0 a 17,17 0 1,1 34,0 a 17,17 0 1,1 -34,0 z M 299 528 m -70, 0 a 70,70 0 1,1 140,0 a 70,70 0 1,1 -140,0 z M 299 299 m -17, 0 a 17,17 0 1,1 34,0 a 17,17 0 1,1 -34,0 z M 299 70 m -70, 0 a 70,70 0 1,1 140,0 a 70,70 0 1,1 -140,0 z " horiz-adv-x="600" unicode="9"/>
<glyph d="M 70 528 m -70, 0 a 70,70 0 1,1 140,0 a 70,70 0 1,1 -140,0 z M 70 299 m -70, 0 a 70,70 0 1,1 140,0 a 70,70 0 1,1 -140,0 z M 70 70 m -17, 0 a 17,17 0 1,1 34,0 a 17,17 0 1,1 -34,0 z M 299 528 m -70, 0 a 70,70 0 1,1 140,0 a 70,70 0 1,1 -140,0 z M 299 299 m -17, 0 a 17,17 0 1,1 34,0 a 17,17 0 1,1 -34,0 z M 299 70 m -70, 0 a 70,70 0 1,1 140,0 a 70,70 0 1,1 -140,0 z " horiz-adv-x="600" unicode="6"/>
<glyph d="M 70 528 m -17, 0 a 17,17 0 1,1 34,0 a 17,17 0 1,1 -34,0 z M 70 299 m -17, 0 a 17,17 0 1,1 34,0 a 17,17 0 1,1 -34,0 z M 70 70 m -70, 0 a 70,70 0 1,1 140,0 a 70,70 0 1,1 -140,0 z M 299 528 m -70, 0 a 70,70 0 1,1 140,0 a 70,70 0 1,1 -140,0 z M 299 299 m -17, 0 a 17,17 0 1,1 34,0 a 17,17 0 1,1 -34,0 z M 299 70 m -70, 0 a 70,70 0 1,1 140,0 a 70,70 0 1,1 -140,0 z " horiz-adv-x="600" unicode="#"/>
<glyph d="M 70 528 m -70, 0 a 70,70 0 1,1 140,0 a 70,70 0 1,1 -140,0 z M 70 299 m -17, 0 a 17,17 0 1,1 34,0 a 17,17 0 1,1 -34,0 z M 70 70 m -70, 0 a 70,70 0 1,1 140,0 a 70,70 0 1,1 -140,0 z M 299 528 m -70, 0 a 70,70 0 1,1 140,0 a 70,70 0 1,1 -140,0 z M 299 299 m -17, 0 a 17,17 0 1,1 34,0 a 17,17 0 1,1 -34,0 z M 299 70 m -70, 0 a 70,70 0 1,1 140,0 a 70,70 0 1,1 -140,0 z " horiz-adv-x="600" unicode="x"/>
<glyph d="M 70 528 m -17, 0 a 17,17 0 1,1 34,0 a 17,17 0 1,1 -34,0 z M 70 299 m -70, 0 a 70,70 0 1,1 140,0 a 70,70 0 1,1 -140,0 z M 70 70 m -70, 0 a 70,70 0 1,1 140,0 a 70,70 0 1,1 -140,0 z M 299 528 m -70, 0 a 70,70 0 1,1 140,0 a 70,70 0 1,1 -140,0 z M 299 299 m -17, 0 a 17,17 0 1,1 34,0 a 17,17 0 1,1 -34,0 z M 299 70 m -70, 0 a 70,70 0 1,1 140,0 a 70,70 0 1,1 -140,0 z " horiz-adv-x="600" unicode="\"/>
<glyph d="M 70 528 m -70, 0 a 70,70 0 1,1 140,0 a 70,70 0 1,1 -140,0 z M 70 299 m -70, 0 a 70,70 0 1,1 140,0 a 70,70 0 1,1 -140,0 z M 70 70 m -70, 0 a 70,70 0 1,1 140,0 a 70,70 0 1,1 -140,0 z M 299 528 m -70, 0 a 70,70 0 1,1 140,0 a 70,70 0 1,1 -140,0 z M 299 299 m -17, 0 a 17,17 0 1,1 34,0 a 17,17 0 1,1 -34,0 z M 299 70 m -70, 0 a 70,70 0 1,1 140,0 a 70,70 0 1,1 -140,0 z " horiz-adv-x="600" unicode="%"/>
<glyph d="M 70 528 m -17, 0 a 17,17 0 1,1 34,0 a 17,17 0 1,1 -34,0 z M 70 299 m -17, 0 a 17,17 0 1,1 34,0 a 17,17 0 1,1 -34,0 z M 70 70 m -17, 0 a 17,17 0 1,1 34,0 a 17,17 0 1,1 -34,0 z M 299 528 m -17, 0 a 17,17 0 1,1 34,0 a 17,17 0 1,1 -34,0 z M 299 299 m -70, 0 a 70,70 0 1,1 140,0 a 70,70 0 1,1 -140,0 z M 299 70 m -70, 0 a 70,70 0 1,1 140,0 a 70,70 0 1,1 -140,0 z " horiz-adv-x="600" unicode="&lt;"/>
<glyph d="M 70 528 m -70, 0 a 70,70 0 1,1 140,0 a 70,70 0 1,1 -140,0 z M 70 299 m -17, 0 a 17,17 0 1,1 34,0 a 17,17 0 1,1 -34,0 z M 70 70 m -17, 0 a 17,17 0 1,1 34,0 a 17,17 0 1,1 -34,0 z M 299 528 m -17, 0 a 17,17 0 1,1 34,0 a 17,17 0 1,1 -34,0 z M 299 299 m -70, 0 a 70,70 0 1,1 140,0 a 70,70 0 1,1 -140,0 z M 299 70 m -70, 0 a 70,70 0 1,1 140,0 a 70,70 0 1,1 -140,0 z " horiz-adv-x="600" unicode="5"/>
<glyph d="M 70 528 m -17, 0 a 17,17 0 1,1 34,0 a 17,17 0 1,1 -34,0 z M 70 299 m -70, 0 a 70,70 0 1,1 140,0 a 70,70 0 1,1 -140,0 z M 70 70 m -17, 0 a 17,17 0 1,1 34,0 a 17,17 0 1,1 -34,0 z M 299 528 m -17, 0 a 17,17 0 1,1 34,0 a 17,17 0 1,1 -34,0 z M 299 299 m -70, 0 a 70,70 0 1,1 140,0 a 70,70 0 1,1 -140,0 z M 299 70 m -70, 0 a 70,70 0 1,1 140,0 a 70,70 0 1,1 -140,0 z " horiz-adv-x="600" unicode="/"/>
<glyph d="M 70 528 m -70, 0 a 70,70 0 1,1 140,0 a 70,70 0 1,1 -140,0 z M 70 299 m -70, 0 a 70,70 0 1,1 140,0 a 70,70 0 1,1 -140,0 z M 70 70 m -17, 0 a 17,17 0 1,1 34,0 a 17,17 0 1,1 -34,0 z M 299 528 m -17, 0 a 17,17 0 1,1 34,0 a 17,17 0 1,1 -34,0 z M 299 299 m -70, 0 a 70,70 0 1,1 140,0 a 70,70 0 1,1 -140,0 z M 299 70 m -70, 0 a 70,70 0 1,1 140,0 a 70,70 0 1,1 -140,0 z " horiz-adv-x="600" unicode="8"/>
<glyph d="M 70 528 m -17, 0 a 17,17 0 1,1 34,0 a 17,17 0 1,1 -34,0 z M 70 299 m -17, 0 a 17,17 0 1,1 34,0 a 17,17 0 1,1 -34,0 z M 70 70 m -70, 0 a 70,70 0 1,1 140,0 a 70,70 0 1,1 -140,0 z M 299 528 m -17, 0 a 17,17 0 1,1 34,0 a 17,17 0 1,1 -34,0 z M 299 299 m -70, 0 a 70,70 0 1,1 140,0 a 70,70 0 1,1 -140,0 z M 299 70 m -70, 0 a 70,70 0 1,1 140,0 a 70,70 0 1,1 -140,0 z " horiz-adv-x="600" unicode=")"/>
<glyph d="M 70 528 m -70, 0 a 70,70 0 1,1 140,0 a 70,70 0 1,1 -140,0 z M 70 299 m -17, 0 a 17,17 0 1,1 34,0 a 17,17 0 1,1 -34,0 z M 70 70 m -70, 0 a 70,70 0 1,1 140,0 a 70,70 0 1,1 -140,0 z M 299 528 m -17, 0 a 17,17 0 1,1 34,0 a 17,17 0 1,1 -34,0 z M 299 299 m -70, 0 a 70,70 0 1,1 140,0 a 70,70 0 1,1 -140,0 z M 299 70 m -70, 0 a 70,70 0 1,1 140,0 a 70,70 0 1,1 -140,0 z " horiz-adv-x="600" unicode="z"/>
<glyph d="M 70 528 m -17, 0 a 17,17 0 1,1 34,0 a 17,17 0 1,1 -34,0 z M 70 299 m -70, 0 a 70,70 0 1,1 140,0 a 70,70 0 1,1 -140,0 z M 70 70 m -70, 0 a 70,70 0 1,1 140,0 a 70,70 0 1,1 -140,0 z M 299 528 m -17, 0 a 17,17 0 1,1 34,0 a 17,17 0 1,1 -34,0 z M 299 299 m -70, 0 a 70,70 0 1,1 140,0 a 70,70 0 1,1 -140,0 z M 299 70 m -70, 0 a 70,70 0 1,1 140,0 a 70,70 0 1,1 -140,0 z " horiz-adv-x="600" unicode="&quot;"/>
<glyph d="M 70 528 m -70, 0 a 70,70 0 1,1 140,0 a 70,70 0 1,1 -140,0 z M 70 299 m -70, 0 a 70,70 0 1,1 140,0 a 70,70 0 1,1 -140,0 z M 70 70 m -70, 0 a 70,70 0 1,1 140,0 a 70,70 0 1,1 -140,0 z M 299 528 m -17, 0 a 17,17 0 1,1 34,0 a 17,17 0 1,1 -34,0 z M 299 299 m -70, 0 a 70,70 0 1,1 140,0 a 70,70 0 1,1 -140,0 z M 299 70 m -70, 0 a 70,70 0 1,1 140,0 a 70,70 0 1,1 -140,0 z " horiz-adv-x="600" unicode="["/>
<glyph d="M 70 528 m -17, 0 a 17,17 0 1,1 34,0 a 17,17 0 1,1 -34,0 z M 70 299 m -17, 0 a 17,17 0 1,1 34,0 a 17,17 0 1,1 -34,0 z M 70 70 m -17, 0 a 17,17 0 1,1 34,0 a 17,17 0 1,1 -34,0 z M 299 528 m -70, 0 a 70,70 0 1,1 140,0 a 70,70 0 1,1 -140,0 z M 299 299 m -70, 0 a 70,70 0 1,1 140,0 a 70,70 0 1,1 -140,0 z M 299 70 m -70, 0 a 70,70 0 1,1 140,0 a 70,70 0 1,1 -140,0 z " horiz-adv-x="600" unicode="$"/>
<glyph d="M 70 528 m -70, 0 a 70,70 0 1,1 140,0 a 70,70 0 1,1 -140,0 z M 70 299 m -17, 0 a 17,17 0 1,1 34,0 a 17,17 0 1,1 -34,0 z M 70 70 m -17, 0 a 17,17 0 1,1 34,0 a 17,17 0 1,1 -34,0 z M 299 528 m -70, 0 a 70,70 0 1,1 140,0 a 70,70 0 1,1 -140,0 z M 299 299 m -70, 0 a 70,70 0 1,1 140,0 a 70,70 0 1,1 -140,0 z M 299 70 m -70, 0 a 70,70 0 1,1 140,0 a 70,70 0 1,1 -140,0 z " horiz-adv-x="600" unicode="4"/>
<glyph d="M 70 528 m -17, 0 a 17,17 0 1,1 34,0 a 17,17 0 1,1 -34,0 z M 70 299 m -70, 0 a 70,70 0 1,1 140,0 a 70,70 0 1,1 -140,0 z M 70 70 m -17, 0 a 17,17 0 1,1 34,0 a 17,17 0 1,1 -34,0 z M 299 528 m -70, 0 a 70,70 0 1,1 140,0 a 70,70 0 1,1 -140,0 z M 299 299 m -70, 0 a 70,70 0 1,1 140,0 a 70,70 0 1,1 -140,0 z M 299 70 m -70, 0 a 70,70 0 1,1 140,0 a 70,70 0 1,1 -140,0 z " horiz-adv-x="600" unicode="w"/>
<glyph d="M 70 528 m -70, 0 a 70,70 0 1,1 140,0 a 70,70 0 1,1 -140,0 z M 70 299 m -70, 0 a 70,70 0 1,1 140,0 a 70,70 0 1,1 -140,0 z M 70 70 m -17, 0 a 17,17 0 1,1 34,0 a 17,17 0 1,1 -34,0 z M 299 528 m -70, 0 a 70,70 0 1,1 140,0 a 70,70 0 1,1 -140,0 z M 299 299 m -70, 0 a 70,70 0 1,1 140,0 a 70,70 0 1,1 -140,0 z M 299 70 m -70, 0 a 70,70 0 1,1 140,0 a 70,70 0 1,1 -140,0 z " horiz-adv-x="600" unicode="7"/>
<glyph d="M 70 528 m -17, 0 a 17,17 0 1,1 34,0 a 17,17 0 1,1 -34,0 z M 70 299 m -17, 0 a 17,17 0 1,1 34,0 a 17,17 0 1,1 -34,0 z M 70 70 m -70, 0 a 70,70 0 1,1 140,0 a 70,70 0 1,1 -140,0 z M 299 528 m -70, 0 a 70,70 0 1,1 140,0 a 70,70 0 1,1 -140,0 z M 299 299 m -70, 0 a 70,70 0 1,1 140,0 a 70,70 0 1,1 -140,0 z M 299 70 m -70, 0 a 70,70 0 1,1 140,0 a 70,70 0 1,1 -140,0 z " horiz-adv-x="600" unicode="0"/>
<glyph d="M 70 528 m -70, 0 a 70,70 0 1,1 140,0 a 70,70 0 1,1 -140,0 z M 70 299 m -17, 0 a 17,17 0 1,1 34,0 a 17,17 0 1,1 -34,0 z M 70 70 m -70, 0 a 70,70 0 1,1 140,0 a 70,70 0 1,1 -140,0 z M 299 528 m -70, 0 a 70,70 0 1,1 140,0 a 70,70 0 1,1 -140,0 z M 299 299 m -70, 0 a 70,70 0 1,1 140,0 a 70,70 0 1,1 -140,0 z M 299 70 m -70, 0 a 70,70 0 1,1 140,0 a 70,70 0 1,1 -140,0 z " horiz-adv-x="600" unicode="y"/>
<glyph d="M 70 528 m -17, 0 a 17,17 0 1,1 34,0 a 17,17 0 1,1 -34,0 z M 70 299 m -70, 0 a 70,70 0 1,1 140,0 a 70,70 0 1,1 -140,0 z M 70 70 m -70, 0 a 70,70 0 1,1 140,0 a 70,70 0 1,1 -140,0 z M 299 528 m -70, 0 a 70,70 0 1,1 140,0 a 70,70 0 1,1 -140,0 z M 299 299 m -70, 0 a 70,70 0 1,1 140,0 a 70,70 0 1,1 -140,0 z M 299 70 m -70, 0 a 70,70 0 1,1 140,0 a 70,70 0 1,1 -140,0 z " horiz-adv-x="600" unicode="]"/>
<glyph d="M 70 528 m -70, 0 a 70,70 0 1,1 140,0 a 70,70 0 1,1 -140,0 z M 70 299 m -70, 0 a 70,70 0 1,1 140,0 a 70,70 0 1,1 -140,0 z M 70 70 m -70, 0 a 70,70 0 1,1 140,0 a 70,70 0 1,1 -140,0 z M 299 528 m -70, 0 a 70,70 0 1,1 140,0 a 70,70 0 1,1 -140,0 z M 299 299 m -70, 0 a 70,70 0 1,1 140,0 a 70,70 0 1,1 -140,0 z M 299 70 m -70, 0 a 70,70 0 1,1 140,0 a 70,70 0 1,1 -140,0 z " horiz-adv-x="600" unicode="&amp;"/>
</font>
</defs>
</svg>
